<svg xmlns="http://www.w3.org/2000/svg" width="316.52" height="96" viewBox="0 0 2505.8 760" role="img" aria-label="Nucleus"><style>@media (prefers-color-scheme:dark){.nlc-p1{stop-color:#7b58f5;fill:#7b58f5}.nlc-p2{stop-color:#a98cff;fill:#a98cff}.nlc-o1{stop-color:#ffa826;fill:#ffa826}.nlc-o2{stop-color:#ff8f2e;fill:#ff8f2e}.nlc-c1{stop-color:#c9b0ff;fill:#c9b0ff}.nlc-c2{stop-color:#7b58f5;fill:#7b58f5}.nlc-c3{stop-color:#3a2190;fill:#3a2190}.nlc-wordmark{stop-color:#f4f4f5;fill:#f4f4f5}}</style><svg x="0" y="0" width="760" height="760" viewBox="-380 -380 760 760"><g transform="scale(1)"><defs><linearGradient id="nl-op" gradientUnits="userSpaceOnUse" x1="-263.27" y1="-152" x2="128.48" y2="-275.52"><stop offset="0" stop-color="#3e0db5" class="nlc-p1"/><stop offset="0.35" stop-color="#3e0db5" class="nlc-p1"/><stop offset="1" stop-color="#7a35d0" class="nlc-p2"/></linearGradient><linearGradient id="nl-oo" gradientUnits="userSpaceOnUse" x1="236.25" y1="191.31" x2="289.93" y2="-91.41"><stop offset="0" stop-color="#ff8a1c" class="nlc-o2"/><stop offset="0.4" stop-color="#ff9e08" class="nlc-o1"/><stop offset="1" stop-color="#ff9e08" class="nlc-o1"/></linearGradient><linearGradient id="nl-ip" gradientUnits="userSpaceOnUse" x1="-166.28" y1="-96" x2="96" y2="-166.28"><stop offset="0" stop-color="#3e0db5" class="nlc-p1"/><stop offset="0.55" stop-color="#3e0db5" class="nlc-p1"/><stop offset="1" stop-color="#7a35d0" class="nlc-p2"/></linearGradient><linearGradient id="nl-ib" gradientUnits="userSpaceOnUse" x1="0" y1="192" x2="192" y2="0"><stop offset="0" stop-color="#3e0db5" class="nlc-p1"/><stop offset="0.48" stop-color="#3e0db5" class="nlc-p1"/><stop offset="0.82" stop-color="#ff8a1c" class="nlc-o2"/><stop offset="1" stop-color="#ff9e08" class="nlc-o1"/></linearGradient><radialGradient id="nl-core" cx="0.62" cy="0.36" r="0.78" fx="0.68" fy="0.28"><stop offset="0" stop-color="#8b47d3" class="nlc-c1"/><stop offset="0.45" stop-color="#4b249b" class="nlc-c2"/><stop offset="1" stop-color="#1a1560" class="nlc-c3"/></radialGradient></defs><g data-part="ring-outer"><path d="M 164.23 -255.82 A 304 304 0 1 0 225.92 203.42" fill="none" stroke-width="26" stroke-linecap="round" stroke="url(#nl-op)"/><path d="M 236.25 191.31 A 304 304 0 0 0 289.93 -91.41" fill="none" stroke-width="26" stroke-linecap="round" stroke="url(#nl-oo)"/></g><g data-part="ring-inner"><path d="M 100.32 -163.71 A 192 192 0 0 0 -186.77 44.5" fill="none" stroke-width="26" stroke-linecap="round" stroke="url(#nl-ip)"/><path d="M -153.94 114.74 A 192 192 0 1 0 140.42 -130.94" fill="none" stroke-width="26" stroke-linecap="round" stroke="url(#nl-ib)"/></g><circle data-part="core" cx="0" cy="0" r="116" fill="url(#nl-core)"/><g data-part="electrons"><circle cx="-259.76" cy="-157.93" r="40" fill="#3e0db5" class="nlc-p1"/><circle cx="-288.79" cy="94.95" r="50" fill="#3e0db5" class="nlc-p1"/><circle cx="208.1" cy="221.61" r="28" fill="#3e0db5" class="nlc-p1"/><circle cx="241.5" cy="-184.64" r="55" fill="#ff9e08" class="nlc-o1"/></g></g></svg><svg x="830" y="205" width="1675.8" height="350" viewBox="64 40 3275 684" preserveAspectRatio="xMinYMid meet"><path d="M 1682.879 42.645 C 1681.714 44.049, 1681.459 95.820, 1681.234 376.110 C 1680.974 700.792, 1681.009 707.935, 1682.862 708.926 C 1685.223 710.190, 1792.884 710.516, 1794.137 709.263 C 1794.623 708.777, 1794.893 562.015, 1794.751 374.949 L 1794.500 41.500 1739.379 41.242 C 1689.021 41.006, 1684.140 41.127, 1682.879 42.645 M 273.500 246.980 C 262.418 248.247, 243.348 251.861, 233 254.656 C 216.782 259.037, 188.105 270.385, 179 276.025 C 178.175 276.536, 173.438 279.369, 168.473 282.321 C 152.082 292.065, 143.320 298.718, 129.368 312.015 C 96.201 343.625, 76.017 382.207, 67.841 429.622 C 65.637 442.407, 65.618 443.456, 65.263 575.088 C 64.950 691.037, 65.091 707.830, 66.381 708.901 C 68.298 710.492, 179.889 710.511, 181.480 708.921 C 182.157 708.243, 182.686 663.682, 183.053 576.200 C 183.595 447.111, 183.647 444.341, 185.679 436.500 C 188.585 425.290, 191.226 418.764, 196.732 409.190 C 203.155 398.021, 209.717 389.947, 219.499 381.181 C 257.130 347.455, 316.043 340.782, 364.417 364.764 C 373.580 369.307, 387.601 379.689, 393.941 386.626 C 398.695 391.827, 414 413.773, 414 415.388 C 414 415.785, 414.905 418.096, 416.011 420.525 C 417.117 422.953, 419.241 429.116, 420.730 434.220 L 423.438 443.500 423.754 575.440 C 423.977 668.563, 424.390 707.765, 425.158 708.690 C 426.679 710.523, 538.970 710.630, 540.800 708.800 C 542.309 707.291, 542.487 461.342, 540.993 442.128 C 539.650 424.855, 535.332 404.091, 530.568 392 C 516.719 356.848, 503.519 336.157, 480.564 313.618 C 463.150 296.520, 443.933 282.998, 421.500 272.057 C 397.547 260.375, 375.043 253.330, 346 248.421 C 334.342 246.450, 286.463 245.499, 273.500 246.980 M 1377 246.614 C 1362.988 247.795, 1346.509 250.677, 1329.023 255.004 C 1311.431 259.357, 1276.448 274.497, 1260.924 284.475 C 1256.841 287.100, 1252.375 289.944, 1251 290.797 C 1236.034 300.074, 1208.857 325.262, 1195.969 341.801 C 1178.733 363.919, 1163.815 392.034, 1157.129 415 C 1155.928 419.125, 1154.539 423.850, 1154.042 425.500 C 1152.404 430.934, 1150.162 441.336, 1148.331 452 C 1145.787 466.807, 1145.765 507.478, 1148.293 520.500 C 1153.950 549.642, 1157.828 563.286, 1164.590 577.839 C 1166.465 581.876, 1168 585.597, 1168 586.109 C 1168 586.621, 1169.045 588.718, 1170.323 590.770 C 1171.601 592.821, 1172.939 595.293, 1173.296 596.262 C 1174.085 598.400, 1183.544 612.905, 1190.407 622.500 C 1198.337 633.588, 1209.452 646.367, 1217.284 653.401 C 1221.253 656.965, 1226.075 661.304, 1228 663.042 C 1229.925 664.780, 1235.775 669.263, 1241 673.005 C 1271.223 694.650, 1296.938 706.283, 1335 715.531 C 1368.823 723.748, 1420.681 724.587, 1459.500 717.543 C 1470.435 715.559, 1492.884 709.681, 1499.500 707.069 C 1500.600 706.635, 1505.325 704.809, 1510 703.012 C 1522.864 698.065, 1536.290 691.499, 1548.500 684.181 C 1554.550 680.555, 1559.950 677.239, 1560.500 676.813 C 1561.050 676.387, 1565.298 673.231, 1569.940 669.801 C 1585.920 657.993, 1611.582 631.262, 1610.806 627.233 C 1610.624 626.286, 1602.410 619.350, 1592.554 611.821 C 1582.698 604.291, 1573.894 597.498, 1572.991 596.724 C 1566.908 591.516, 1527.207 562, 1526.285 562 C 1525.656 562, 1519.120 567.962, 1511.760 575.250 C 1498.082 588.794, 1494.381 591.815, 1483 598.724 C 1457.879 613.976, 1421.643 622.031, 1391.165 619.137 C 1375.192 617.621, 1365.741 615.421, 1348.500 609.207 C 1321.764 599.571, 1294.487 576.313, 1280.816 551.496 C 1276.079 542.896, 1270.021 528.301, 1268.158 521 C 1260.647 491.555, 1263.336 457.726, 1275.274 431.500 C 1277.527 426.550, 1279.886 421.825, 1280.516 421 C 1281.146 420.175, 1282.843 417.429, 1284.286 414.898 C 1290.789 403.496, 1308.659 385.531, 1323.357 375.618 C 1340.225 364.242, 1354.891 357.974, 1375.500 353.330 C 1387.072 350.723, 1421.123 350.726, 1432.500 353.335 C 1453.405 358.129, 1473.076 366.012, 1487.348 375.315 C 1495.846 380.855, 1508.326 391.934, 1517.326 401.931 C 1524.538 409.941, 1525.414 410.427, 1528.739 408.266 C 1532.720 405.677, 1548.174 394.245, 1550.500 392.167 C 1551.600 391.185, 1556.100 387.624, 1560.500 384.254 C 1564.900 380.885, 1574.350 373.612, 1581.500 368.093 C 1588.650 362.573, 1596.480 356.582, 1598.899 354.779 C 1606.449 349.152, 1611 344.826, 1611 343.278 C 1611 340.960, 1602.690 330.703, 1592.507 320.453 C 1578.958 306.813, 1565.610 296.683, 1544.573 284.075 C 1528.627 274.517, 1526.162 273.264, 1511.835 267.432 C 1488.561 257.958, 1468.335 252.367, 1443 248.405 C 1432.974 246.837, 1388.629 245.634, 1377 246.614 M 2097 246.656 C 2078.015 248.387, 2050.243 254.430, 2034 260.366 C 2015.247 267.218, 1998.931 274.784, 1988.458 281.484 C 1985.435 283.418, 1982.749 285, 1982.490 285 C 1982.039 285, 1975.752 289.232, 1964 297.447 C 1949.812 307.365, 1930.799 326.527, 1915.331 346.500 C 1900.533 365.606, 1886.703 393.393, 1879.494 418.500 C 1872.212 443.860, 1870.483 457.175, 1870.600 487 C 1870.745 524.162, 1874.140 543.625, 1885.689 573.500 C 1900.264 611.203, 1927.535 646.930, 1960.500 671.509 C 1978.953 685.267, 2002.676 698.303, 2020.500 704.479 C 2023.250 705.432, 2026.400 706.605, 2027.500 707.085 C 2032.496 709.266, 2052.777 714.724, 2066.500 717.579 C 2075.673 719.488, 2112.039 722.920, 2123.500 722.958 C 2147.949 723.041, 2183.404 718.272, 2206.500 711.794 C 2210.350 710.714, 2214.850 709.462, 2216.500 709.011 C 2220.755 707.847, 2228.970 705.034, 2232.500 703.531 C 2234.150 702.828, 2237.750 701.438, 2240.500 700.442 C 2244.726 698.910, 2251.850 695.408, 2271.500 685.201 C 2277.274 682.201, 2291.574 672.601, 2299.982 666.079 C 2311.672 657.011, 2328.900 640.246, 2329.667 637.192 C 2330.352 634.463, 2330.576 634.712, 2314.953 620.921 C 2310.854 617.302, 2301.195 608.752, 2293.489 601.921 C 2285.783 595.089, 2276.560 587.025, 2272.993 584 C 2269.425 580.975, 2264.778 576.925, 2262.664 575 C 2256.252 569.159, 2256.053 569.193, 2246.272 577.801 C 2241.447 582.047, 2234.752 587.630, 2231.394 590.208 C 2224.886 595.204, 2208.435 605.504, 2204.690 606.928 C 2203.451 607.399, 2200.426 608.700, 2197.968 609.819 C 2176.439 619.624, 2138.778 625.498, 2112.750 623.110 C 2094.734 621.457, 2073.142 616.232, 2060.349 610.429 C 2058.616 609.643, 2056.719 609, 2056.134 609 C 2054.620 609, 2040.343 600.332, 2035 596.168 C 2016.199 581.519, 2002.763 563.931, 1994.981 543.782 C 1991.554 534.909, 1991.222 531.363, 1993.750 530.621 C 1994.713 530.338, 2078.018 530.228, 2178.873 530.376 C 2279.728 530.524, 2363.878 530.381, 2365.873 530.058 C 2369.362 529.493, 2369.525 529.281, 2370.158 524.485 C 2370.519 521.743, 2371.139 510.950, 2371.534 500.500 C 2372.530 474.181, 2369.975 444.447, 2365.047 425 C 2363.331 418.227, 2356.159 396.489, 2353.995 391.500 C 2353.517 390.400, 2351.748 386.431, 2350.063 382.680 C 2348.379 378.929, 2347 375.633, 2347 375.355 C 2347 375.077, 2345.124 371.621, 2342.831 367.675 C 2321.463 330.897, 2294.613 303.195, 2260.460 282.692 C 2236.163 268.104, 2210.661 257.816, 2184.500 252.045 C 2164.618 247.659, 2155.215 246.734, 2128 246.487 C 2113.425 246.355, 2099.475 246.431, 2097 246.656 M 3121.500 249.057 C 3104.913 250.603, 3083.870 255.070, 3067.500 260.518 C 3042.144 268.957, 3014.900 284.889, 3000.082 299.944 C 2985.618 314.638, 2973.542 333.699, 2967.735 351 C 2962.735 365.896, 2961.615 373.324, 2961.556 392 C 2961.491 412.299, 2963.481 424.361, 2969.061 437.500 C 2969.528 438.600, 2970.599 441.226, 2971.440 443.336 C 2974.007 449.774, 2982.575 463.175, 2987.993 469.228 C 3000.588 483.298, 3028.859 501.560, 3047.128 507.426 C 3049.533 508.198, 3053.975 509.723, 3057 510.814 C 3063.983 513.334, 3079.893 517.692, 3086.827 518.985 C 3089.757 519.531, 3092.497 520.189, 3092.915 520.447 C 3093.921 521.069, 3123.602 527.244, 3141.500 530.555 C 3157.658 533.544, 3179.090 539.237, 3187 542.641 C 3207.121 551.301, 3216.215 559.391, 3219.033 571.139 C 3221.248 580.372, 3218.429 592.853, 3212.739 599 C 3202.458 610.109, 3190.418 615.777, 3168 620.061 C 3157.886 621.994, 3154.391 622.190, 3139 621.691 C 3129.375 621.378, 3118.575 620.609, 3115 619.980 C 3100.213 617.381, 3084.439 613.509, 3078.500 611.019 C 3077.400 610.558, 3072.450 608.548, 3067.500 606.552 C 3052.802 600.627, 3035.410 590.055, 3019.234 577.215 C 3014.073 573.117, 3009.220 570.004, 3008.278 570.185 C 3007.349 570.364, 3003.745 574.108, 3000.270 578.505 C 2990.508 590.859, 2986.520 595.877, 2980.013 604 C 2976.708 608.125, 2970.193 616.450, 2965.536 622.500 C 2960.878 628.550, 2954.313 636.875, 2950.946 641 C 2942.056 651.894, 2941.874 652.464, 2946.055 656.382 C 2964.034 673.231, 2997.739 692.997, 3025.500 702.973 C 3030.450 704.752, 3035.400 706.585, 3036.500 707.045 C 3037.600 707.506, 3040.075 708.187, 3042 708.557 C 3043.925 708.928, 3045.950 709.560, 3046.500 709.962 C 3048.220 711.220, 3070.409 716.116, 3085 718.457 C 3123.075 724.566, 3177.811 722.607, 3211.593 713.926 C 3222.286 711.179, 3237.101 706.315, 3243.651 703.402 C 3245.384 702.631, 3247.116 702, 3247.500 702 C 3247.884 702, 3252.142 700.008, 3256.962 697.573 C 3294.157 678.785, 3317.294 655.271, 3329.847 623.500 C 3337.934 603.033, 3340.031 572.675, 3334.992 549 C 3330.456 527.683, 3322.400 512.288, 3306.019 493.631 C 3298.358 484.905, 3269.856 466.948, 3255 461.488 C 3237.796 455.165, 3218.563 449.157, 3208.591 446.992 C 3206.341 446.503, 3200.225 445.164, 3195 444.015 C 3189.775 442.867, 3183.250 441.524, 3180.500 441.032 C 3177.750 440.540, 3172.350 439.393, 3168.500 438.483 C 3164.650 437.574, 3158.125 436.213, 3154 435.460 C 3101.413 425.861, 3080.213 414.164, 3077.434 393.215 C 3073.933 366.822, 3106.716 346.604, 3150.117 348.390 C 3183.733 349.773, 3217.768 362.254, 3244.499 383 C 3254.097 390.448, 3253.878 390.484, 3260.995 380.294 C 3264.373 375.457, 3270.444 366.550, 3274.486 360.500 C 3278.528 354.450, 3288.374 339.808, 3296.367 327.963 C 3304.360 316.118, 3311.197 305.650, 3311.561 304.701 C 3312.287 302.810, 3307.808 298.158, 3300.557 293.269 C 3298.326 291.765, 3294.250 288.916, 3291.500 286.938 C 3269.910 271.410, 3227.544 256.227, 3191 250.921 C 3175.194 248.626, 3137.086 247.604, 3121.500 249.057 M 625.500 258.976 L 618.500 259.500 618.500 398 L 618.500 536.500 620.789 549 C 623.497 563.791, 627.581 578.384, 631.564 587.500 C 632.285 589.150, 634.080 593.422, 635.553 596.994 C 640.513 609.022, 645.830 618.898, 652.080 627.693 C 655.499 632.503, 658.904 637.047, 659.648 637.791 C 660.391 638.534, 661 639.546, 661 640.038 C 661 640.531, 667.190 647.136, 674.755 654.717 C 695.673 675.678, 717.272 690.495, 742.185 700.975 C 748.958 703.825, 755.400 706.548, 756.500 707.028 C 763.198 709.949, 778.450 714.015, 797.500 717.959 C 829.978 724.681, 877.664 723.825, 913 715.884 C 918.225 714.710, 923.400 713.390, 924.500 712.950 C 925.600 712.510, 927.625 711.936, 929 711.673 C 932.183 711.065, 949.095 704.915, 955 702.219 C 957.475 701.089, 962.430 698.842, 966.012 697.225 C 976.806 692.352, 997.580 679.982, 1000 676.987 C 1000.275 676.646, 1002.750 674.847, 1005.500 672.988 C 1011.012 669.263, 1035.626 645.111, 1041.158 638 C 1044.087 634.235, 1051.940 622.370, 1056.712 614.499 C 1059.572 609.782, 1067.848 592.014, 1069.754 586.500 C 1075.127 570.950, 1079.097 554.909, 1081.536 538.884 C 1083.518 525.858, 1083.722 260.585, 1081.750 259.309 C 1080.438 258.460, 971.186 258.767, 969.800 259.624 C 969.360 259.896, 969 317.471, 969 387.570 C 969 522.261, 968.961 523.544, 964.407 540 C 955.118 573.568, 926.863 602.743, 894 612.702 C 873.699 618.854, 856.277 620.842, 837.614 619.136 C 825.972 618.072, 820.621 616.880, 807 612.315 C 798.143 609.347, 783.765 602.122, 779 598.246 C 766.262 587.884, 763.159 584.930, 757.519 577.797 C 750.944 569.483, 743.151 555.492, 739.806 546 C 734.455 530.814, 734.678 536.764, 734.067 393.213 C 733.586 280.140, 733.287 259.795, 732.092 259.057 C 730.613 258.143, 637.570 258.072, 625.500 258.976 M 2463 259 L 2440.500 259.500 2440.500 396 C 2440.500 544.269, 2440.375 540.550, 2446.159 564.500 C 2451.747 587.636, 2457.345 601.622, 2468.371 620 C 2495.766 665.659, 2538.084 697.206, 2593 712.910 C 2597.125 714.089, 2601.850 715.471, 2603.500 715.979 C 2605.150 716.488, 2608.975 717.215, 2612 717.594 C 2615.025 717.974, 2618.496 718.653, 2619.713 719.103 C 2620.930 719.554, 2630.155 720.642, 2640.213 721.521 C 2663.240 723.534, 2689.479 722.411, 2713.500 718.383 C 2735.305 714.726, 2765.159 704.551, 2783.733 694.446 C 2810.805 679.716, 2831.296 662.793, 2849.657 640 C 2861.220 625.646, 2875.308 599.465, 2880.936 581.868 C 2886.702 563.841, 2888.449 555.972, 2890.454 539 C 2891.852 527.165, 2892.015 509.101, 2891.775 392.500 L 2891.500 259.500 2836.559 259.241 C 2806.341 259.099, 2781.262 259.338, 2780.827 259.773 C 2780.393 260.207, 2780.012 317.023, 2779.981 386.031 C 2779.948 459.783, 2779.523 515.385, 2778.951 520.926 C 2776.898 540.817, 2767.989 563.679, 2756.938 577.416 C 2746.525 590.361, 2731.331 602.740, 2719.500 607.920 C 2716.750 609.124, 2713.600 610.525, 2712.500 611.034 C 2699.306 617.135, 2677.663 620.614, 2659.500 619.553 C 2649.283 618.957, 2630.794 615.641, 2628.500 613.994 C 2627.950 613.599, 2626.155 612.953, 2624.512 612.559 C 2619.884 611.449, 2604.585 603.565, 2597.701 598.742 C 2579.196 585.778, 2566.740 568.932, 2560.182 548 C 2553.609 527.022, 2553.991 536.564, 2553.962 392.500 C 2553.948 320.450, 2553.613 260.998, 2553.218 260.384 C 2552.366 259.060, 2497.901 258.224, 2463 259 M 2102 348.143 C 2111.284 346.863, 2133.42 346.819, 2144.789 348.058 C 2158.169 349.517, 2173.184 354.035, 2187.66 360.96 C 2200.206 366.961, 2203.156 368.845, 2213.5 377.468 C 2226.745 388.507, 2238.214 402.938, 2244.494 416.467 C 2249.283 426.783, 2252.407 438.805, 2250.802 440.739 C 2249.273 442.581, 1995.177 442.592, 1992.704 440.75 C 1991.175 439.611, 1991.154 439.018, 1992.47 434.07 C 1996.112 420.373, 2002.123 409.5, 2015.353 392.671 C 2021.983 384.237, 2042.894 368.538, 2056.5 361.78 C 2068.854 355.643, 2086.96 350.217, 2102 348.143" fill="#041d55" class="nlc-wordmark"/></svg></svg>